<svg xmlns="http://www.w3.org/2000/svg" width="86.28" height="30.15" viewBox="0 0 86.28 30.15">
  <path id="Path_3" data-name="Path 3" d="M1.86,0H6.99V-9.09c0-2.28,1.26-3.54,3.21-3.54s3.21,1.26,3.21,3.54V0h5.1V-9.78c0-4.5-2.55-7.14-6.36-7.14a6.174,6.174,0,0,0-5.16,2.43V-22.2H1.86ZM27.69-6.27,23.82-16.74H18.09L24.9-.57,21.06,7.95h5.52l10.5-24.69H31.53ZM35.82-8.4c0,5.28,3.27,8.64,7.38,8.64A5.79,5.79,0,0,0,48.36-2.4V0h5.13V-22.2H48.36v7.77a6.145,6.145,0,0,0-5.16-2.55C39.09-16.98,35.82-13.68,35.82-8.4Zm12.54.03c0,2.67-1.71,4.14-3.66,4.14-1.92,0-3.66-1.5-3.66-4.17s1.74-4.11,3.66-4.11C46.65-12.51,48.36-11.04,48.36-8.37Zm14.13-4.5a2.894,2.894,0,0,1,3.15,2.88H59.22A3.173,3.173,0,0,1,62.49-12.87ZM70.5-5.55H65.04a2.728,2.728,0,0,1-2.67,1.62c-1.65,0-3-1.02-3.18-3.21H70.8a12.964,12.964,0,0,0,.09-1.5c0-5.1-3.45-8.34-8.34-8.34-4.98,0-8.46,3.3-8.46,8.61S57.63.24,62.55.24A7.824,7.824,0,0,0,70.5-5.55ZM83.04,0h5.1V-9.78c0-4.5-2.58-7.14-6.45-7.14a6.138,6.138,0,0,0-5.07,2.4v-2.22H71.49V0h5.13V-9.09c0-2.28,1.26-3.54,3.21-3.54s3.21,1.26,3.21,3.54Z" transform="translate(-1.86 22.2)"/>
</svg>
