<svg xmlns="http://www.w3.org/2000/svg" width="285" height="51" viewBox="0 0 285 51">
  <g id="Group_13" data-name="Group 13" transform="translate(-818 -703)">
    <path id="Subtraction_1" data-name="Subtraction 1" d="M275,41H0V0H275V41ZM252,5V36h18V5ZM230,5V36h18V5ZM207,5V36h18V5ZM185,5V36h18V5ZM163,5V36h18V5ZM140,5V36h18V5ZM118,5V36h18V5ZM95,5V36h18V5ZM73,5V36H91V5ZM51,5V36H69V5ZM28,5V36H46V5ZM6,5V36H24V5Z" transform="translate(823 708)" fill="#ed1f24"/>
    <rect id="Rectangle_31" data-name="Rectangle 31" width="275" height="5" transform="translate(823 749)" fill="#f1f1f1"/>
    <rect id="Rectangle_32" data-name="Rectangle 32" width="275" height="5" transform="translate(823 703)" fill="#f1f1f1"/>
    <rect id="Rectangle_33" data-name="Rectangle 33" width="41" height="5" transform="translate(823 708) rotate(90)" fill="#f1f1f1"/>
    <rect id="Rectangle_34" data-name="Rectangle 34" width="41" height="5" transform="translate(1103 708) rotate(90)" fill="#f1f1f1"/>
  </g>
</svg>
